<?xml version="1.0" encoding="UTF-8" standalone="no"?>
<!DOCTYPE svg PUBLIC "-//W3C//DTD SVG 1.1//EN"
 "http://www.w3.org/Graphics/SVG/1.1/DTD/svg11.dtd">
<!-- Generated by graphviz version 14.1.3 (20260303.0454)
 -->
<!-- Title: aliasing Pages: 1 -->
<svg width="256pt" height="153pt"
 viewBox="0.00 0.00 256.00 153.00" xmlns="http://www.w3.org/2000/svg" xmlns:xlink="http://www.w3.org/1999/xlink">
<g id="graph0" class="graph" transform="scale(1 1) rotate(0) translate(4 148.5)">
<title>aliasing</title>
<polygon fill="white" stroke="none" points="-4,4 -4,-148.5 251.75,-148.5 251.75,4 -4,4"/>
<!-- t -->
<g id="node1" class="node">
<title>t</title>
<polygon fill="none" stroke="black" points="54,-36.5 0,-36.5 0,-0.5 54,-0.5 54,-36.5"/>
<text xml:space="preserve" text-anchor="middle" x="27" y="-14.22" font-family="sans-serif" font-size="12.00">t</text>
</g>
<!-- other -->
<g id="node5" class="node">
<title>other</title>
<polygon fill="none" stroke="black" points="90,-0.5 90,-36.5 247.75,-36.5 247.75,-0.5 90,-0.5"/>
<text xml:space="preserve" text-anchor="middle" x="168.88" y="-14.6" font-family="sans-serif" font-size="12.00">hour: 6, tempCelsius: &#45;4</text>
</g>
<!-- t&#45;&gt;other -->
<g id="edge3" class="edge">
<title>t&#45;&gt;other</title>
<path fill="none" stroke="black" d="M54.31,-18.5C61.46,-18.5 69.63,-18.5 78.23,-18.5"/>
<polygon fill="black" stroke="black" points="78.22,-22 88.22,-18.5 78.22,-15 78.22,-22"/>
</g>
<!-- r -->
<g id="node2" class="node">
<title>r</title>
<polygon fill="none" stroke="black" points="54,-144.5 0,-144.5 0,-108.5 54,-108.5 54,-144.5"/>
<text xml:space="preserve" text-anchor="middle" x="27" y="-122.22" font-family="sans-serif" font-size="12.00">r</text>
</g>
<!-- shared -->
<g id="node4" class="node">
<title>shared</title>
<polygon fill="none" stroke="black" points="92.25,-81.5 92.25,-117.5 245.5,-117.5 245.5,-81.5 92.25,-81.5"/>
<text xml:space="preserve" text-anchor="middle" x="168.88" y="-95.6" font-family="sans-serif" font-size="12.00">hour: 6, tempCelsius: 0</text>
</g>
<!-- r&#45;&gt;shared -->
<g id="edge1" class="edge">
<title>r&#45;&gt;shared</title>
<path fill="none" stroke="black" d="M54.31,-121.42C62.1,-119.92 71.1,-118.18 80.55,-116.36"/>
<polygon fill="black" stroke="black" points="81.16,-119.8 90.31,-114.47 79.83,-112.93 81.16,-119.8"/>
</g>
<!-- s -->
<g id="node3" class="node">
<title>s</title>
<polygon fill="none" stroke="black" points="54,-90.5 0,-90.5 0,-54.5 54,-54.5 54,-90.5"/>
<text xml:space="preserve" text-anchor="middle" x="27" y="-68.22" font-family="sans-serif" font-size="12.00">s</text>
</g>
<!-- s&#45;&gt;shared -->
<g id="edge2" class="edge">
<title>s&#45;&gt;shared</title>
<path fill="none" stroke="black" d="M54.31,-77.58C62.1,-79.08 71.1,-80.82 80.55,-82.64"/>
<polygon fill="black" stroke="black" points="79.83,-86.07 90.31,-84.53 81.16,-79.2 79.83,-86.07"/>
</g>
</g>
</svg>
