<?xml version="1.0" encoding="UTF-8" standalone="no"?>
<!DOCTYPE svg PUBLIC "-//W3C//DTD SVG 1.1//EN"
 "http://www.w3.org/Graphics/SVG/1.1/DTD/svg11.dtd">
<!-- Generated by graphviz version 14.1.3 (20260303.0454)
 -->
<!-- Title: objects Pages: 1 -->
<svg width="356pt" height="285pt"
 viewBox="0.00 0.00 356.00 285.00" xmlns="http://www.w3.org/2000/svg" xmlns:xlink="http://www.w3.org/1999/xlink">
<g id="graph0" class="graph" transform="scale(1 1) rotate(0) translate(4 280.5)">
<title>objects</title>
<polygon fill="white" stroke="none" points="-4,4 -4,-280.5 351.5,-280.5 351.5,4 -4,4"/>
<!-- favourites -->
<g id="node1" class="node">
<title>favourites</title>
<polygon fill="none" stroke="black" points="71.5,-145.75 0,-145.75 0,-109.75 71.5,-109.75 71.5,-145.75"/>
<text xml:space="preserve" text-anchor="middle" x="35.75" y="-124.05" font-family="sans-serif" font-size="11.00">favourites</text>
</g>
<!-- p1 -->
<g id="node3" class="node">
<title>p1</title>
<polygon fill="none" stroke="black" points="123.38,-74 123.38,-181.5 232.38,-181.5 232.38,-74 123.38,-74"/>
<text xml:space="preserve" text-anchor="middle" x="177.88" y="-167.05" font-family="sans-serif" font-size="11.00">Playlist</text>
<polyline fill="none" stroke="black" points="123.38,-160 232.38,-160"/>
<text xml:space="preserve" text-anchor="middle" x="157" y="-124.05" font-family="sans-serif" font-size="11.00">songs</text>
<polyline fill="none" stroke="black" points="190.62,-95.5 190.62,-160"/>
<text xml:space="preserve" text-anchor="middle" x="211.5" y="-145.55" font-family="sans-serif" font-size="11.00">0</text>
<polyline fill="none" stroke="black" points="190.62,-138.5 232.38,-138.5"/>
<text xml:space="preserve" text-anchor="middle" x="211.5" y="-124.05" font-family="sans-serif" font-size="11.00">1</text>
<polyline fill="none" stroke="black" points="190.62,-117 232.38,-117"/>
<text xml:space="preserve" text-anchor="middle" x="211.5" y="-102.55" font-family="sans-serif" font-size="11.00">2</text>
<polyline fill="none" stroke="black" points="123.38,-95.5 232.38,-95.5"/>
<text xml:space="preserve" text-anchor="middle" x="177.88" y="-81.05" font-family="sans-serif" font-size="11.00">currentIndex = 0</text>
</g>
<!-- favourites&#45;&gt;p1 -->
<g id="edge1" class="edge">
<title>favourites&#45;&gt;p1</title>
<path fill="none" stroke="black" d="M71.75,-127.75C83.84,-127.75 97.82,-127.75 111.55,-127.75"/>
<polygon fill="black" stroke="black" points="111.47,-131.25 121.47,-127.75 111.47,-124.25 111.47,-131.25"/>
</g>
<!-- workout -->
<g id="node2" class="node">
<title>workout</title>
<polygon fill="none" stroke="black" points="65.88,-261.75 5.62,-261.75 5.62,-225.75 65.88,-225.75 65.88,-261.75"/>
<text xml:space="preserve" text-anchor="middle" x="35.75" y="-240.05" font-family="sans-serif" font-size="11.00">workout</text>
</g>
<!-- p2 -->
<g id="node4" class="node">
<title>p2</title>
<polygon fill="none" stroke="black" points="121.5,-211.5 121.5,-276 234.25,-276 234.25,-211.5 121.5,-211.5"/>
<text xml:space="preserve" text-anchor="middle" x="177.88" y="-261.55" font-family="sans-serif" font-size="11.00">Playlist</text>
<polyline fill="none" stroke="black" points="121.5,-254.5 234.25,-254.5"/>
<text xml:space="preserve" text-anchor="middle" x="146.62" y="-240.05" font-family="sans-serif" font-size="11.00">songs</text>
<polyline fill="none" stroke="black" points="171.75,-233 171.75,-254.5"/>
<text xml:space="preserve" text-anchor="middle" x="202.88" y="-240.05" font-family="sans-serif" font-size="11.00">(empty)</text>
<polyline fill="none" stroke="black" points="121.5,-233 234.25,-233"/>
<text xml:space="preserve" text-anchor="middle" x="177.88" y="-218.55" font-family="sans-serif" font-size="11.00">currentIndex = &#45;1</text>
</g>
<!-- workout&#45;&gt;p2 -->
<g id="edge2" class="edge">
<title>workout&#45;&gt;p2</title>
<path fill="none" stroke="black" d="M66.12,-243.75C78.98,-243.75 94.62,-243.75 110.06,-243.75"/>
<polygon fill="black" stroke="black" points="109.7,-247.25 119.7,-243.75 109.7,-240.25 109.7,-247.25"/>
</g>
<!-- a -->
<g id="node5" class="node">
<title>a</title>
<polygon fill="none" stroke="black" points="287.25,-190.5 287.25,-255 344.5,-255 344.5,-190.5 287.25,-190.5"/>
<text xml:space="preserve" text-anchor="middle" x="315.88" y="-240.55" font-family="sans-serif" font-size="11.00">Song</text>
<polyline fill="none" stroke="black" points="287.25,-233.5 344.5,-233.5"/>
<text xml:space="preserve" text-anchor="middle" x="315.88" y="-219.05" font-family="sans-serif" font-size="11.00">Aubade</text>
<polyline fill="none" stroke="black" points="287.25,-212 344.5,-212"/>
<text xml:space="preserve" text-anchor="middle" x="315.88" y="-197.55" font-family="sans-serif" font-size="11.00">180s</text>
</g>
<!-- p1&#45;&gt;a -->
<g id="edge3" class="edge">
<title>p1:s0&#45;&gt;a</title>
<path fill="none" stroke="black" d="M233.38,-149.25C255.77,-149.25 274.77,-164.74 288.79,-181.49"/>
<polygon fill="black" stroke="black" points="285.81,-183.37 294.72,-189.1 291.33,-179.07 285.81,-183.37"/>
</g>
<!-- b -->
<g id="node6" class="node">
<title>b</title>
<polygon fill="none" stroke="black" points="285,-95.5 285,-160 346.75,-160 346.75,-95.5 285,-95.5"/>
<text xml:space="preserve" text-anchor="middle" x="315.88" y="-145.55" font-family="sans-serif" font-size="11.00">Song</text>
<polyline fill="none" stroke="black" points="285,-138.5 346.75,-138.5"/>
<text xml:space="preserve" text-anchor="middle" x="315.88" y="-124.05" font-family="sans-serif" font-size="11.00">Bassline</text>
<polyline fill="none" stroke="black" points="285,-117 346.75,-117"/>
<text xml:space="preserve" text-anchor="middle" x="315.88" y="-102.55" font-family="sans-serif" font-size="11.00">240s</text>
</g>
<!-- p1&#45;&gt;b -->
<g id="edge4" class="edge">
<title>p1:s1&#45;&gt;b</title>
<path fill="none" stroke="black" d="M233.38,-127.75C246.37,-127.75 260.54,-127.75 273.36,-127.75"/>
<polygon fill="black" stroke="black" points="273.17,-131.25 283.17,-127.75 273.17,-124.25 273.17,-131.25"/>
</g>
<!-- c -->
<g id="node7" class="node">
<title>c</title>
<polygon fill="none" stroke="black" points="284.25,-0.5 284.25,-65 347.5,-65 347.5,-0.5 284.25,-0.5"/>
<text xml:space="preserve" text-anchor="middle" x="315.88" y="-50.55" font-family="sans-serif" font-size="11.00">Song</text>
<polyline fill="none" stroke="black" points="284.25,-43.5 347.5,-43.5"/>
<text xml:space="preserve" text-anchor="middle" x="315.88" y="-29.05" font-family="sans-serif" font-size="11.00">Cadence</text>
<polyline fill="none" stroke="black" points="284.25,-22 347.5,-22"/>
<text xml:space="preserve" text-anchor="middle" x="315.88" y="-7.55" font-family="sans-serif" font-size="11.00">200s</text>
</g>
<!-- p1&#45;&gt;c -->
<g id="edge5" class="edge">
<title>p1:s2&#45;&gt;c</title>
<path fill="none" stroke="black" d="M233.38,-106.25C255.77,-106.25 274.77,-90.76 288.79,-74.01"/>
<polygon fill="black" stroke="black" points="291.33,-76.43 294.72,-66.4 285.81,-72.13 291.33,-76.43"/>
</g>
</g>
</svg>
