<?xml version="1.0" encoding="UTF-8" standalone="no"?>
<!DOCTYPE svg PUBLIC "-//W3C//DTD SVG 1.1//EN"
 "http://www.w3.org/Graphics/SVG/1.1/DTD/svg11.dtd">
<!-- Generated by graphviz version 14.1.3 (20260303.0454)
 -->
<!-- Title: encapsulation Pages: 1 -->
<svg width="797pt" height="277pt"
 viewBox="0.00 0.00 797.00 277.00" xmlns="http://www.w3.org/2000/svg" xmlns:xlink="http://www.w3.org/1999/xlink">
<g id="graph0" class="graph" transform="scale(1 1) rotate(0) translate(4 273.5)">
<title>encapsulation</title>
<polygon fill="white" stroke="none" points="-4,4 -4,-273.5 792.75,-273.5 792.75,4 -4,4"/>
<g id="clust1" class="cluster">
<title>cluster_guestlist</title>
<polygon fill="#eef3ff" stroke="#eef3ff" points="202.25,-22.5 202.25,-261.5 780.75,-261.5 780.75,-22.5 202.25,-22.5"/>
<text xml:space="preserve" text-anchor="middle" x="491.5" y="-244.2" font-family="Times,serif" font-size="14.00">class GuestList</text>
</g>
<!-- invited -->
<g id="node1" class="node">
<title>invited</title>
<polygon fill="none" stroke="black" points="545.62,-84.5 545.62,-120.5 733.38,-120.5 733.38,-84.5 545.62,-84.5"/>
<text xml:space="preserve" text-anchor="middle" x="639.5" y="-98.2" font-family="Times,serif" font-size="14.00">private invited: string[];</text>
</g>
<!-- capacity -->
<g id="node2" class="node">
<title>capacity</title>
<polygon fill="none" stroke="black" points="506.25,-191.5 506.25,-227.5 772.75,-227.5 772.75,-191.5 506.25,-191.5"/>
<text xml:space="preserve" text-anchor="middle" x="639.5" y="-205.2" font-family="Times,serif" font-size="14.00">private readonly capacity: number;</text>
</g>
<!-- add -->
<g id="node3" class="node">
<title>add</title>
<path fill="none" stroke="black" d="M358.62,-174.5C358.62,-174.5 320.88,-174.5 320.88,-174.5 314.88,-174.5 308.88,-168.5 308.88,-162.5 308.88,-162.5 308.88,-150.5 308.88,-150.5 308.88,-144.5 314.88,-138.5 320.88,-138.5 320.88,-138.5 358.62,-138.5 358.62,-138.5 364.62,-138.5 370.62,-144.5 370.62,-150.5 370.62,-150.5 370.62,-162.5 370.62,-162.5 370.62,-168.5 364.62,-174.5 358.62,-174.5"/>
<text xml:space="preserve" text-anchor="middle" x="339.75" y="-151.82" font-family="Times,serif" font-size="14.00">add(..)</text>
</g>
<!-- add&#45;&gt;invited -->
<g id="edge1" class="edge">
<title>add&#45;&gt;invited</title>
<path fill="none" stroke="black" stroke-dasharray="5,2" d="M370.94,-151.02C409.06,-144.11 476.66,-131.85 534.37,-121.38"/>
<polygon fill="black" stroke="black" points="534.69,-124.88 543.9,-119.65 533.44,-117.99 534.69,-124.88"/>
</g>
<!-- isFull -->
<g id="node4" class="node">
<title>isFull</title>
<path fill="none" stroke="black" d="M393.12,-228.5C393.12,-228.5 286.38,-228.5 286.38,-228.5 280.38,-228.5 274.38,-222.5 274.38,-216.5 274.38,-216.5 274.38,-204.5 274.38,-204.5 274.38,-198.5 280.38,-192.5 286.38,-192.5 286.38,-192.5 393.12,-192.5 393.12,-192.5 399.12,-192.5 405.12,-198.5 405.12,-204.5 405.12,-204.5 405.12,-216.5 405.12,-216.5 405.12,-222.5 399.12,-228.5 393.12,-228.5"/>
<text xml:space="preserve" text-anchor="middle" x="339.75" y="-205.82" font-family="Times,serif" font-size="14.00">isFull(): boolean</text>
</g>
<!-- isFull&#45;&gt;capacity -->
<g id="edge2" class="edge">
<title>isFull&#45;&gt;capacity</title>
<path fill="none" stroke="black" stroke-dasharray="5,2" d="M405.36,-210.28C431.63,-210.19 463.13,-210.08 494.35,-209.98"/>
<polygon fill="black" stroke="black" points="494.33,-213.48 504.32,-209.95 494.31,-206.48 494.33,-213.48"/>
</g>
<!-- isInvited -->
<g id="node5" class="node">
<title>isInvited</title>
<path fill="none" stroke="black" d="M457.25,-120.5C457.25,-120.5 222.25,-120.5 222.25,-120.5 216.25,-120.5 210.25,-114.5 210.25,-108.5 210.25,-108.5 210.25,-96.5 210.25,-96.5 210.25,-90.5 216.25,-84.5 222.25,-84.5 222.25,-84.5 457.25,-84.5 457.25,-84.5 463.25,-84.5 469.25,-90.5 469.25,-96.5 469.25,-96.5 469.25,-108.5 469.25,-108.5 469.25,-114.5 463.25,-120.5 457.25,-120.5"/>
<text xml:space="preserve" text-anchor="middle" x="339.75" y="-97.82" font-family="Times,serif" font-size="14.00">isInvited(guestId: string): boolean</text>
</g>
<!-- size -->
<g id="node6" class="node">
<title>size</title>
<path fill="none" stroke="black" d="M387.12,-66.5C387.12,-66.5 292.38,-66.5 292.38,-66.5 286.38,-66.5 280.38,-60.5 280.38,-54.5 280.38,-54.5 280.38,-42.5 280.38,-42.5 280.38,-36.5 286.38,-30.5 292.38,-30.5 292.38,-30.5 387.12,-30.5 387.12,-30.5 393.12,-30.5 399.12,-36.5 399.12,-42.5 399.12,-42.5 399.12,-54.5 399.12,-54.5 399.12,-60.5 393.12,-66.5 387.12,-66.5"/>
<text xml:space="preserve" text-anchor="middle" x="339.75" y="-43.82" font-family="Times,serif" font-size="14.00">size(): number</text>
</g>
<!-- client -->
<g id="node7" class="node">
<title>client</title>
<polygon fill="none" stroke="black" points="118,-120.5 0,-120.5 0,-84.5 118,-84.5 118,-120.5"/>
<text xml:space="preserve" text-anchor="middle" x="59" y="-97.82" font-family="Times,serif" font-size="14.00">External Code</text>
</g>
<!-- client&#45;&gt;invited -->
<g id="edge7" class="edge">
<title>client&#45;&gt;invited</title>
<path fill="none" stroke="red" stroke-dasharray="5,2" d="M82.99,-84.34C109.81,-64.41 156.37,-33.64 202.25,-21.5 316.96,8.88 353.53,4.77 469.25,-21.5 517.18,-32.37 567.41,-58.57 600.58,-78.25"/>
<polygon fill="red" stroke="red" points="598.63,-81.16 609,-83.34 602.25,-75.17 598.63,-81.16"/>
<text xml:space="preserve" text-anchor="middle" x="600.71" y="-40.61" font-family="Times,serif" font-size="14.00">Compile Error</text>
</g>
<!-- client&#45;&gt;add -->
<g id="edge3" class="edge">
<title>client&#45;&gt;add</title>
<path fill="none" stroke="black" d="M118.35,-119.3C124.29,-120.81 130.25,-122.24 136,-123.5 191.45,-135.63 256.32,-145.43 297.47,-151.11"/>
<polygon fill="black" stroke="black" points="296.79,-154.55 307.17,-152.43 297.73,-147.62 296.79,-154.55"/>
<text xml:space="preserve" text-anchor="middle" x="164.12" y="-138.37" font-family="Times,serif" font-size="14.00">Allowed</text>
</g>
<!-- client&#45;&gt;isFull -->
<g id="edge4" class="edge">
<title>client&#45;&gt;isFull</title>
<path fill="none" stroke="black" d="M83.47,-120.78C98.08,-131.67 117.55,-145.31 136,-155.5 163.99,-170.94 171.69,-174.12 202.25,-183.5 221.65,-189.44 243.01,-194.4 262.96,-198.36"/>
<polygon fill="black" stroke="black" points="262.22,-201.79 272.7,-200.24 263.55,-194.91 262.22,-201.79"/>
<text xml:space="preserve" text-anchor="middle" x="164.12" y="-184.31" font-family="Times,serif" font-size="14.00">Allowed</text>
</g>
<!-- client&#45;&gt;isInvited -->
<g id="edge5" class="edge">
<title>client&#45;&gt;isInvited</title>
<path fill="none" stroke="black" d="M118.44,-102.5C141.97,-102.5 170.22,-102.5 198.52,-102.5"/>
<polygon fill="black" stroke="black" points="198.26,-106 208.26,-102.5 198.26,-99 198.26,-106"/>
<text xml:space="preserve" text-anchor="middle" x="164.12" y="-106.45" font-family="Times,serif" font-size="14.00">Allowed</text>
</g>
<!-- client&#45;&gt;size -->
<g id="edge6" class="edge">
<title>client&#45;&gt;size</title>
<path fill="none" stroke="black" d="M118.34,-85.47C124.28,-83.95 130.25,-82.51 136,-81.25 179.9,-71.59 229.72,-63.51 269,-57.78"/>
<polygon fill="black" stroke="black" points="269.4,-61.26 278.81,-56.37 268.41,-54.33 269.4,-61.26"/>
<text xml:space="preserve" text-anchor="middle" x="164.12" y="-85.2" font-family="Times,serif" font-size="14.00">Allowed</text>
</g>
</g>
</svg>
