<svg xmlns="http://www.w3.org/2000/svg" xmlns:xlink="http://www.w3.org/1999/xlink" contentStyleType="text/css" data-diagram-type="CLASS" height="567px" preserveAspectRatio="none" style="width:475px;height:567px;background:#FFFFFF;" version="1.1" viewBox="0 0 475 567" width="475px" zoomAndPan="magnify"><?plantuml 1.2026.6?><defs/><g><!--class alertAll--><g class="entity" data-qualified-name="alertAll" data-source-line="6" id="ent0001"><rect fill="#F1F1F1" height="40.2656" rx="2.5" ry="2.5" style="stroke:#181818;stroke-width:0.5;" width="200.9951" x="149.9" y="7"/><text fill="#000000" font-family="sans-serif" font-size="12" font-style="italic" lengthAdjust="spacing" textLength="63.7031" x="218.546" y="23.1387">&#171;function&#187;</text><text fill="#000000" font-family="sans-serif" font-size="14" lengthAdjust="spacing" textLength="194.9951" x="152.9" y="38.9639">alertAll(channels: Notifier[])</text></g><!--class Notifier--><g class="entity" data-qualified-name="Notifier" data-source-line="7" id="ent0002"><rect fill="#F1F1F1" height="56.2969" rx="2.5" ry="2.5" style="stroke:#181818;stroke-width:0.5;" width="221.6582" x="139.57" y="107.27"/><ellipse cx="220.3469" cy="123.27" fill="#B4A7E5" rx="11" ry="11" style="stroke:#181818;stroke-width:1;"/><path d="M216.2687,119.0356 L216.2687,116.8794 L223.6594,116.8794 L223.6594,119.0356 L221.1906,119.0356 L221.1906,127.1138 L223.6594,127.1138 L223.6594,129.27 L216.2687,129.27 L216.2687,127.1138 L218.7375,127.1138 L218.7375,119.0356 L216.2687,119.0356 Z " fill="#000000"/><text fill="#000000" font-family="sans-serif" font-size="14" font-style="italic" lengthAdjust="spacing" textLength="51.6045" x="240.8469" y="128.1167">Notifier</text><line style="stroke:#181818;stroke-width:0.5;" x1="140.57" x2="360.2282" y1="139.27" y2="139.27"/><g data-visibility-modifier="PUBLIC_METHOD"><ellipse cx="150.57" cy="152.9184" fill="#84BE84" rx="3" ry="3" style="stroke:#038048;stroke-width:1;"/></g><text fill="#000000" font-family="sans-serif" font-size="14" lengthAdjust="spacing" textLength="195.6582" x="159.57" y="156.2651">send(message: string): void</text></g><!--class BaseNotifier--><g class="entity" data-qualified-name="BaseNotifier" data-source-line="8" id="ent0003"><rect fill="#F1F1F1" height="72.5938" rx="2.5" ry="2.5" style="stroke:#181818;stroke-width:0.5;" width="221.6582" x="139.57" y="243.56"/><ellipse cx="203.3014" cy="259.56" fill="#A9DCDF" rx="11" ry="11" style="stroke:#181818;stroke-width:1;"/><path d="M203.4108,254.9038 L202.2546,259.9819 L204.5827,259.9819 L203.4108,254.9038 Z M201.9264,252.6694 L204.9108,252.6694 L208.2702,265.06 L205.8171,265.06 L205.0514,261.9975 L201.7702,261.9975 L201.0202,265.06 L198.5827,265.06 L201.9264,252.6694 Z " fill="#000000"/><text fill="#000000" font-family="sans-serif" font-size="14" font-style="italic" lengthAdjust="spacing" textLength="85.6953" x="223.8014" y="264.4067">BaseNotifier</text><line style="stroke:#181818;stroke-width:0.5;" x1="140.57" x2="360.2282" y1="275.56" y2="275.56"/><g data-visibility-modifier="PUBLIC_METHOD"><ellipse cx="150.57" cy="289.2084" fill="#84BE84" rx="3" ry="3" style="stroke:#038048;stroke-width:1;"/></g><text fill="#000000" font-family="sans-serif" font-size="14" lengthAdjust="spacing" textLength="195.6582" x="159.57" y="292.5551">send(message: string): void</text><g data-visibility-modifier="PROTECTED_METHOD"><polygon fill="#FFFF44" points="150.57,300.5053,154.57,304.5053,150.57,308.5053,146.57,304.5053" style="stroke:#B38D22;stroke-width:1;stroke-linejoin:miter;stroke-miterlimit:10;"/></g><text fill="#000000" font-family="sans-serif" font-size="14" font-style="italic" lengthAdjust="spacing" textLength="174.8838" x="159.57" y="308.852">deliver(text: string): void</text></g><polygon fill="none" points="250.3997,316.1538,257.4,336.1536,243.4,336.1539" style="stroke:#181818;stroke-width:1;stroke-linejoin:miter;stroke-miterlimit:10;"/><line style="stroke:#181818;stroke-width:1;" x1="250.4" x2="250.4" y1="336.1537" y2="337.86"/><line style="stroke:#181818;stroke-width:1;" x1="250.3997" x2="250.4" y1="243.56" y2="223.18"/><!--class PushNotifier--><g class="entity" data-qualified-name="PushNotifier" data-source-line="9" id="ent0004"><rect fill="#F1F1F1" height="56.2969" rx="2.5" ry="2.5" style="stroke:#181818;stroke-width:0.5;" width="117.0869" x="36.86" y="396.16"/><ellipse cx="51.86" cy="412.16" fill="#ADD1B2" rx="11" ry="11" style="stroke:#181818;stroke-width:1;"/><path d="M54.8288,417.8006 Q54.2506,418.0975 53.61,418.2381 Q52.9694,418.3944 52.2663,418.3944 Q49.7663,418.3944 48.4381,416.7538 Q47.1256,415.0975 47.1256,411.9725 Q47.1256,408.8475 48.4381,407.1913 Q49.7663,405.535 52.2663,405.535 Q52.9694,405.535 53.61,405.6913 Q54.2663,405.8475 54.8288,406.1444 L54.8288,408.8631 Q54.2038,408.285 53.61,408.0194 Q53.0163,407.7381 52.3913,407.7381 Q51.0475,407.7381 50.36,408.8163 Q49.6725,409.8788 49.6725,411.9725 Q49.6725,414.0663 50.36,415.1444 Q51.0475,416.2069 52.3913,416.2069 Q53.0163,416.2069 53.61,415.9413 Q54.2038,415.66 54.8288,415.0819 L54.8288,417.8006 Z " fill="#000000"/><text fill="#000000" font-family="sans-serif" font-size="14" lengthAdjust="spacing" textLength="85.0869" x="65.86" y="417.0067">PushNotifier</text><line style="stroke:#181818;stroke-width:0.5;" x1="37.86" x2="152.9469" y1="428.16" y2="428.16"/><g data-visibility-modifier="PROTECTED_METHOD"><polygon fill="#FFFF44" points="47.86,436.8084,51.86,440.8084,47.86,444.8084,43.86,440.8084" style="stroke:#B38D22;stroke-width:1;stroke-linejoin:miter;stroke-miterlimit:10;"/></g><text fill="#000000" font-family="sans-serif" font-size="14" lengthAdjust="spacing" textLength="67.7578" x="56.86" y="445.1551">deliver(..)</text></g><!--class EmailNotifier--><g class="entity" data-qualified-name="EmailNotifier" data-source-line="13" id="ent0007"><rect fill="#F1F1F1" height="56.2969" rx="2.5" ry="2.5" style="stroke:#181818;stroke-width:0.5;" width="122.4463" x="189.18" y="396.16"/><ellipse cx="204.18" cy="412.16" fill="#ADD1B2" rx="11" ry="11" style="stroke:#181818;stroke-width:1;"/><path d="M207.1488,417.8006 Q206.5706,418.0975 205.93,418.2381 Q205.2894,418.3944 204.5863,418.3944 Q202.0863,418.3944 200.7581,416.7538 Q199.4456,415.0975 199.4456,411.9725 Q199.4456,408.8475 200.7581,407.1913 Q202.0863,405.535 204.5863,405.535 Q205.2894,405.535 205.93,405.6913 Q206.5863,405.8475 207.1488,406.1444 L207.1488,408.8631 Q206.5238,408.285 205.93,408.0194 Q205.3363,407.7381 204.7113,407.7381 Q203.3675,407.7381 202.68,408.8163 Q201.9925,409.8788 201.9925,411.9725 Q201.9925,414.0663 202.68,415.1444 Q203.3675,416.2069 204.7113,416.2069 Q205.3363,416.2069 205.93,415.9413 Q206.5238,415.66 207.1488,415.0819 L207.1488,417.8006 Z " fill="#000000"/><text fill="#000000" font-family="sans-serif" font-size="14" lengthAdjust="spacing" textLength="90.4463" x="218.18" y="417.0067">EmailNotifier</text><line style="stroke:#181818;stroke-width:0.5;" x1="190.18" x2="310.6263" y1="428.16" y2="428.16"/><g data-visibility-modifier="PROTECTED_METHOD"><polygon fill="#FFFF44" points="200.18,436.8084,204.18,440.8084,200.18,444.8084,196.18,440.8084" style="stroke:#B38D22;stroke-width:1;stroke-linejoin:miter;stroke-miterlimit:10;"/></g><text fill="#000000" font-family="sans-serif" font-size="14" lengthAdjust="spacing" textLength="67.7578" x="209.18" y="445.1551">deliver(..)</text></g><!--class SmsNotifier--><g class="entity" data-qualified-name="SmsNotifier" data-source-line="14" id="ent0009"><rect fill="#F1F1F1" height="56.2969" rx="2.5" ry="2.5" style="stroke:#181818;stroke-width:0.5;" width="113.4229" x="346.69" y="396.16"/><ellipse cx="361.69" cy="412.16" fill="#ADD1B2" rx="11" ry="11" style="stroke:#181818;stroke-width:1;"/><path d="M364.6588,417.8006 Q364.0806,418.0975 363.44,418.2381 Q362.7994,418.3944 362.0963,418.3944 Q359.5963,418.3944 358.2681,416.7538 Q356.9556,415.0975 356.9556,411.9725 Q356.9556,408.8475 358.2681,407.1913 Q359.5963,405.535 362.0963,405.535 Q362.7994,405.535 363.44,405.6913 Q364.0963,405.8475 364.6588,406.1444 L364.6588,408.8631 Q364.0338,408.285 363.44,408.0194 Q362.8463,407.7381 362.2213,407.7381 Q360.8775,407.7381 360.19,408.8163 Q359.5025,409.8788 359.5025,411.9725 Q359.5025,414.0663 360.19,415.1444 Q360.8775,416.2069 362.2213,416.2069 Q362.8463,416.2069 363.44,415.9413 Q364.0338,415.66 364.6588,415.0819 L364.6588,417.8006 Z " fill="#000000"/><text fill="#000000" font-family="sans-serif" font-size="14" lengthAdjust="spacing" textLength="81.4229" x="375.69" y="417.0067">SmsNotifier</text><line style="stroke:#181818;stroke-width:0.5;" x1="347.69" x2="459.1129" y1="428.16" y2="428.16"/><g data-visibility-modifier="PROTECTED_METHOD"><polygon fill="#FFFF44" points="357.69,436.8084,361.69,440.8084,357.69,444.8084,353.69,440.8084" style="stroke:#B38D22;stroke-width:1;stroke-linejoin:miter;stroke-miterlimit:10;"/></g><text fill="#000000" font-family="sans-serif" font-size="14" lengthAdjust="spacing" textLength="67.7578" x="366.69" y="445.1551">deliver(..)</text></g><g class="entity" data-qualified-name="GMN12" data-source-line="25" id="ent0013"><path d="M6,512.45 L6,552.7156 A0,0 0 0 0 6,552.7156 L184.8027,552.7156 A0,0 0 0 0 184.8027,552.7156 L184.8027,522.45 L174.8027,512.45 L99.4,512.45 L95.4,452.95 L91.4,512.45 L6,512.45 A0,0 0 0 0 6,512.45" fill="#FEFFDD" style="stroke:#181818;stroke-width:0.5;"/><path d="M174.8027,512.45 L174.8027,522.45 L184.8027,522.45 L174.8027,512.45" fill="#FEFFDD" style="stroke:#181818;stroke-width:0.5;"/><text fill="#000000" font-family="sans-serif" font-size="13" lengthAdjust="spacing" textLength="157.8027" x="12" y="529.5169">added without changing</text><text fill="#000000" font-family="sans-serif" font-size="13" lengthAdjust="spacing" textLength="114.791" x="12" y="544.6497">any existing code</text></g><!--link alertAll to Notifier--><g class="link" data-entity-1="ent0001" data-entity-2="ent0002" data-link-type="dependency" data-source-line="11" id="lnk5"><path codeLine="11" d="M250.4,47.63 C250.4,64.29 250.4,83.44 250.4,102.04" fill="none" id="alertAll-to-Notifier" style="stroke:#181818;stroke-width:1;stroke-dasharray:7,7;"/><polygon fill="#181818" points="250.4,107.04,254.4,98.04,250.4,102.04,246.4,98.04,250.4,107.04" style="stroke:#181818;stroke-width:1;stroke-linejoin:miter;stroke-miterlimit:10;"/></g><!--reverse link Notifier to BaseNotifier--><g class="link" data-entity-1="ent0002" data-entity-2="ent0003" data-link-type="extension" data-source-line="12" id="lnk6"><path codeLine="12" d="M250.4,181.88 C250.4,198.7 250.4,202.83 250.4,223.18" fill="none" id="Notifier-backto-BaseNotifier" style="stroke:#181818;stroke-width:1;stroke-dasharray:7,7;"/><polygon fill="none" points="250.4,163.88,244.4,181.88,256.4,181.88,250.4,163.88" style="stroke:#181818;stroke-width:1;stroke-linejoin:miter;stroke-miterlimit:10;"/></g><!--reverse link BaseNotifier to EmailNotifier--><g class="link" data-entity-1="ent0003" data-entity-2="ent0007" data-link-type="association" data-source-line="13" id="lnk8"><path codeLine="13" d="M250.4,337.86 C250.4,337.86 250.4,370.82 250.4,395.8" fill="none" id="BaseNotifier-backto-EmailNotifier" style="stroke:#181818;stroke-width:1;"/></g><!--reverse link BaseNotifier to SmsNotifier--><g class="link" data-entity-1="ent0003" data-entity-2="ent0009" data-link-type="association" data-source-line="14" id="lnk10"><path codeLine="14" d="M250.4,337.86 C250.4,337.86 309.42,370.82 354.15,395.8" fill="none" id="BaseNotifier-backto-SmsNotifier" style="stroke:#181818;stroke-width:1;"/></g><!--reverse link BaseNotifier to PushNotifier--><g class="link" data-entity-1="ent0003" data-entity-2="ent0004" data-link-type="association" data-source-line="15" id="lnk11"><path codeLine="15" d="M250.4,337.86 C250.4,337.86 190.61,370.82 145.3,395.8" fill="none" id="BaseNotifier-backto-PushNotifier" style="stroke:#181818;stroke-width:1;"/></g><?plantuml-src bP9FImCn4CNl-HH3lRH8z-1nAGK53rv4y2WUfidixc3-bCniRL6_kobbrsuF1M-P-Rsyp4lIiIEWiDK310eRocBaW-CMCmPeS-gtJx6Zp8hH4joPxgXVhPe-MkKKrskmdAqdOwn74PYXfwpttizjXp6IbngUatB3bD_U5pD0WK4oyJ4SbNA3vPH1Rt0Zcj4gdBmVK6XafzPBBztOCgDnLQt_N8O5hBwhQcfoNXIyNC9ZGFPN-6kGAtGwpiXgk1MARXv815kgeSJYs2vgs2LsKv__QR-6A_g16qUUTvJdIdkzt3Q9LVQDugfQcBDCb-Wyq2KpCId19gcc0AcPXWT0vyZ19skN-lA2vJUqPQ0ZY0UWFOkM4cnoP4fUE9gPNm00?></g></svg>