<svg xmlns="http://www.w3.org/2000/svg" xmlns:xlink="http://www.w3.org/1999/xlink" contentStyleType="text/css" data-diagram-type="CLASS" height="356px" preserveAspectRatio="none" style="width:615px;height:356px;background:#FFFFFF;" version="1.1" viewBox="0 0 615 356" width="615px" zoomAndPan="magnify"><?plantuml 1.2026.6?><defs/><g><!--class Validator--><g class="entity" data-qualified-name="Validator" data-source-line="5" id="ent0001"><rect fill="#F1F1F1" height="72.5938" rx="2.5" ry="2.5" style="stroke:#181818;stroke-width:0.5;" width="228.4189" x="178.08" y="7"/><ellipse cx="256.4335" cy="23" fill="#B4A7E5" rx="11" ry="11" style="stroke:#181818;stroke-width:1;"/><path d="M252.3554,18.7656 L252.3554,16.6094 L259.746,16.6094 L259.746,18.7656 L257.2773,18.7656 L257.2773,26.8438 L259.746,26.8438 L259.746,29 L252.3554,29 L252.3554,26.8438 L254.8241,26.8438 L254.8241,18.7656 L252.3554,18.7656 Z " fill="#000000"/><text fill="#000000" font-family="sans-serif" font-size="14" font-style="italic" lengthAdjust="spacing" textLength="63.2119" x="276.9335" y="27.8467">Validator</text><line style="stroke:#181818;stroke-width:0.5;" x1="179.08" x2="405.4989" y1="39" y2="39"/><g data-visibility-modifier="PUBLIC_METHOD"><ellipse cx="189.08" cy="52.6484" fill="#84BE84" rx="3" ry="3" style="stroke:#038048;stroke-width:1;"/></g><text fill="#000000" font-family="sans-serif" font-size="14" lengthAdjust="spacing" textLength="202.4189" x="198.08" y="55.9951">check(input: string): boolean</text><g data-visibility-modifier="PUBLIC_METHOD"><ellipse cx="189.08" cy="68.9453" fill="#84BE84" rx="3" ry="3" style="stroke:#038048;stroke-width:1;"/></g><text fill="#000000" font-family="sans-serif" font-size="14" lengthAdjust="spacing" textLength="87.4111" x="198.08" y="72.292">rule(): string</text></g><polygon fill="none" points="292.2898,79.5938,299.29,99.5937,285.29,99.5938" style="stroke:#181818;stroke-width:1;stroke-linejoin:miter;stroke-miterlimit:10;"/><line style="stroke:#181818;stroke-width:1;" x1="292.29" x2="292.29" y1="99.5937" y2="101.3"/><!--class MinLengthValidator--><g class="entity" data-qualified-name="MinLengthValidator" data-source-line="7" id="ent0002"><rect fill="#F1F1F1" height="96.8906" rx="2.5" ry="2.5" style="stroke:#181818;stroke-width:0.5;" width="168.5889" x="7" y="159.6"/><ellipse cx="22" cy="175.6" fill="#ADD1B2" rx="11" ry="11" style="stroke:#181818;stroke-width:1;"/><path d="M24.9688,181.2406 Q24.3906,181.5375 23.75,181.6781 Q23.1094,181.8344 22.4063,181.8344 Q19.9063,181.8344 18.5781,180.1938 Q17.2656,178.5375 17.2656,175.4125 Q17.2656,172.2875 18.5781,170.6313 Q19.9063,168.975 22.4063,168.975 Q23.1094,168.975 23.75,169.1313 Q24.4063,169.2875 24.9688,169.5844 L24.9688,172.3031 Q24.3438,171.725 23.75,171.4594 Q23.1563,171.1781 22.5313,171.1781 Q21.1875,171.1781 20.5,172.2563 Q19.8125,173.3188 19.8125,175.4125 Q19.8125,177.5063 20.5,178.5844 Q21.1875,179.6469 22.5313,179.6469 Q23.1563,179.6469 23.75,179.3813 Q24.3438,179.1 24.9688,178.5219 L24.9688,181.2406 Z " fill="#000000"/><text fill="#000000" font-family="sans-serif" font-size="14" lengthAdjust="spacing" textLength="136.5889" x="36" y="180.4467">MinLengthValidator</text><line style="stroke:#181818;stroke-width:0.5;" x1="8" x2="174.5889" y1="191.6" y2="191.6"/><g data-visibility-modifier="PRIVATE_FIELD"><rect fill="none" height="6" style="stroke:#C82930;stroke-width:1;" width="6" x="15" y="202.2484"/></g><text fill="#000000" font-family="sans-serif" font-size="14" lengthAdjust="spacing" textLength="138.7422" x="27" y="208.5951">minLength: number</text><line style="stroke:#181818;stroke-width:0.5;" x1="8" x2="174.5889" y1="215.8969" y2="215.8969"/><g data-visibility-modifier="PUBLIC_METHOD"><ellipse cx="18" cy="229.5453" fill="#84BE84" rx="3" ry="3" style="stroke:#038048;stroke-width:1;"/></g><text fill="#000000" font-family="sans-serif" font-size="14" lengthAdjust="spacing" textLength="60.8125" x="27" y="232.892">check(..)</text><g data-visibility-modifier="PUBLIC_METHOD"><ellipse cx="18" cy="245.8422" fill="#84BE84" rx="3" ry="3" style="stroke:#038048;stroke-width:1;"/></g><text fill="#000000" font-family="sans-serif" font-size="14" lengthAdjust="spacing" textLength="38.0557" x="27" y="249.1889">rule()</text></g><!--class NoSpacesValidator--><g class="entity" data-qualified-name="NoSpacesValidator" data-source-line="8" id="ent0004"><rect fill="#F1F1F1" height="72.5938" rx="2.5" ry="2.5" style="stroke:#181818;stroke-width:0.5;" width="164.207" x="210.19" y="171.74"/><ellipse cx="225.19" cy="187.74" fill="#ADD1B2" rx="11" ry="11" style="stroke:#181818;stroke-width:1;"/><path d="M228.1588,193.3806 Q227.5806,193.6775 226.94,193.8181 Q226.2994,193.9744 225.5963,193.9744 Q223.0963,193.9744 221.7681,192.3338 Q220.4556,190.6775 220.4556,187.5525 Q220.4556,184.4275 221.7681,182.7713 Q223.0963,181.115 225.5963,181.115 Q226.2994,181.115 226.94,181.2713 Q227.5963,181.4275 228.1588,181.7244 L228.1588,184.4431 Q227.5338,183.865 226.94,183.5994 Q226.3463,183.3181 225.7213,183.3181 Q224.3775,183.3181 223.69,184.3963 Q223.0025,185.4588 223.0025,187.5525 Q223.0025,189.6463 223.69,190.7244 Q224.3775,191.7869 225.7213,191.7869 Q226.3463,191.7869 226.94,191.5213 Q227.5338,191.24 228.1588,190.6619 L228.1588,193.3806 Z " fill="#000000"/><text fill="#000000" font-family="sans-serif" font-size="14" lengthAdjust="spacing" textLength="132.207" x="239.19" y="192.5867">NoSpacesValidator</text><line style="stroke:#181818;stroke-width:0.5;" x1="211.19" x2="373.397" y1="203.74" y2="203.74"/><g data-visibility-modifier="PUBLIC_METHOD"><ellipse cx="221.19" cy="217.3884" fill="#84BE84" rx="3" ry="3" style="stroke:#038048;stroke-width:1;"/></g><text fill="#000000" font-family="sans-serif" font-size="14" lengthAdjust="spacing" textLength="60.8125" x="230.19" y="220.7351">check(..)</text><g data-visibility-modifier="PUBLIC_METHOD"><ellipse cx="221.19" cy="233.6853" fill="#84BE84" rx="3" ry="3" style="stroke:#038048;stroke-width:1;"/></g><text fill="#000000" font-family="sans-serif" font-size="14" lengthAdjust="spacing" textLength="38.0557" x="230.19" y="237.032">rule()</text></g><!--class RecordingValidator--><g class="entity" data-qualified-name="RecordingValidator" data-source-line="10" id="ent0006"><rect fill="#F1F1F1" height="96.8906" rx="2.5" ry="2.5" style="stroke:#181818;stroke-width:0.5;" width="166.1074" x="409.24" y="159.6"/><ellipse cx="424.24" cy="175.6" fill="#ADD1B2" rx="11" ry="11" style="stroke:#181818;stroke-width:1;"/><path d="M427.2088,181.2406 Q426.6306,181.5375 425.99,181.6781 Q425.3494,181.8344 424.6463,181.8344 Q422.1463,181.8344 420.8181,180.1938 Q419.5056,178.5375 419.5056,175.4125 Q419.5056,172.2875 420.8181,170.6313 Q422.1463,168.975 424.6463,168.975 Q425.3494,168.975 425.99,169.1313 Q426.6463,169.2875 427.2088,169.5844 L427.2088,172.3031 Q426.5838,171.725 425.99,171.4594 Q425.3963,171.1781 424.7713,171.1781 Q423.4275,171.1781 422.74,172.2563 Q422.0525,173.3188 422.0525,175.4125 Q422.0525,177.5063 422.74,178.5844 Q423.4275,179.6469 424.7713,179.6469 Q425.3963,179.6469 425.99,179.3813 Q426.5838,179.1 427.2088,178.5219 L427.2088,181.2406 Z " fill="#000000"/><text fill="#000000" font-family="sans-serif" font-size="14" lengthAdjust="spacing" textLength="134.1074" x="438.24" y="180.4467">RecordingValidator</text><line style="stroke:#181818;stroke-width:0.5;" x1="410.24" x2="574.3474" y1="191.6" y2="191.6"/><g data-visibility-modifier="PUBLIC_FIELD"><ellipse cx="420.24" cy="205.2484" fill="none" rx="3" ry="3" style="stroke:#038048;stroke-width:1;"/></g><text fill="#000000" font-family="sans-serif" font-size="14" lengthAdjust="spacing" textLength="103.585" x="429.24" y="208.5951">inputs: string[]</text><line style="stroke:#181818;stroke-width:0.5;" x1="410.24" x2="574.3474" y1="215.8969" y2="215.8969"/><g data-visibility-modifier="PUBLIC_METHOD"><ellipse cx="420.24" cy="229.5453" fill="#84BE84" rx="3" ry="3" style="stroke:#038048;stroke-width:1;"/></g><text fill="#000000" font-family="sans-serif" font-size="14" lengthAdjust="spacing" textLength="60.8125" x="429.24" y="232.892">check(..)</text><g data-visibility-modifier="PUBLIC_METHOD"><ellipse cx="420.24" cy="245.8422" fill="#84BE84" rx="3" ry="3" style="stroke:#038048;stroke-width:1;"/></g><text fill="#000000" font-family="sans-serif" font-size="14" lengthAdjust="spacing" textLength="38.0557" x="429.24" y="249.1889">rule()</text></g><g class="entity" data-qualified-name="N1" data-source-line="11" id="ent0008"><path d="M383.73,316.49 L383.73,341.6228 A0,0 0 0 0 383.73,341.6228 L600.8662,341.6228 A0,0 0 0 0 600.8662,341.6228 L600.8662,326.49 L590.8662,316.49 L496.29,316.49 L492.29,256.76 L488.29,316.49 L383.73,316.49 A0,0 0 0 0 383.73,316.49" fill="#FEFFDD" style="stroke:#181818;stroke-width:0.5;"/><path d="M590.8662,316.49 L590.8662,326.49 L600.8662,326.49 L590.8662,316.49" fill="#FEFFDD" style="stroke:#181818;stroke-width:0.5;"/><text fill="#000000" font-family="sans-serif" font-size="13" lengthAdjust="spacing" textLength="196.1362" x="389.73" y="333.5569">For testing: check always true</text></g><!--reverse link Validator to MinLengthValidator--><g class="link" data-entity-1="ent0001" data-entity-2="ent0002" data-link-type="association" data-source-line="7" id="lnk3"><path codeLine="7" d="M292.29,101.3 C292.29,101.3 230.89,133.61 175.95,162.5" fill="none" id="Validator-backto-MinLengthValidator" style="stroke:#181818;stroke-width:1;"/></g><!--reverse link Validator to NoSpacesValidator--><g class="link" data-entity-1="ent0001" data-entity-2="ent0004" data-link-type="association" data-source-line="8" id="lnk5"><path codeLine="8" d="M292.29,101.3 C292.29,101.3 292.29,140.82 292.29,171.54" fill="none" id="Validator-backto-NoSpacesValidator" style="stroke:#181818;stroke-width:1;"/></g><!--reverse link Validator to RecordingValidator--><g class="link" data-entity-1="ent0001" data-entity-2="ent0006" data-link-type="association" data-source-line="10" id="lnk7"><path codeLine="10" d="M292.29,101.3 C292.29,101.3 354.05,133.95 408.92,162.96" fill="none" id="Validator-backto-RecordingValidator" style="stroke:#181818;stroke-width:1;"/></g><?plantuml-src TP11QyCm38Nl_XMYfuQnG7SqEmy6QmyRz39sK1CjCKta8CkKmdxyt2vPrYMvMNxVq-EfTYK1jPsUeQNsG19CE3hkKB25IdpidhacSOfS43mOurX9FZ4DUsnSYUh5cDydF7xbEMmTln1NMe_8FsBdtxgq8oplUAN2I-cu6X7sIh1wIeHIq2HPA6egZe3D2Sy1L2Aj00FiDcPgXqlivc-EXRkhVvtwHhKGL98Xit3mlY7aMrHYG-jieCoqOuBks-7N0iVBEUUvFZVFimNz9ynCpdJhdPLxwym1adXj6eOIxnyBs1Wnh_SPtm00?></g></svg>