<svg xmlns="http://www.w3.org/2000/svg" xmlns:xlink="http://www.w3.org/1999/xlink" contentStyleType="text/css" data-diagram-type="CLASS" height="254px" preserveAspectRatio="none" style="width:512px;height:254px;background:#FFFFFF;" version="1.1" viewBox="0 0 512 254" width="512px" zoomAndPan="magnify"><?plantuml 1.2026.6?><defs/><g><!--cluster test--><g class="cluster" data-qualified-name="test" data-source-line="16" id="ent0006"><path d="M313.83,108.3 L346.0429,108.3 A3.75,3.75 0 0 1 348.5429,110.8 L355.5429,130.5969 L494.83,130.5969 A2.5,2.5 0 0 1 497.33,133.0969 L497.33,237.39 A2.5,2.5 0 0 1 494.83,239.89 L313.83,239.89 A2.5,2.5 0 0 1 311.33,237.39 L311.33,110.8 A2.5,2.5 0 0 1 313.83,108.3" fill="none" style="stroke:#000000;stroke-width:1.5;"/><line style="stroke:#000000;stroke-width:1.5;" x1="311.33" x2="355.5429" y1="130.5969" y2="130.5969"/><text fill="#000000" font-family="sans-serif" font-size="14" font-weight="700" lengthAdjust="spacing" textLength="31.2129" x="315.33" y="123.2951">test</text></g><!--class RecordingNotifier--><g class="entity" data-qualified-name="test.RecordingNotifier" data-source-line="17" id="ent0007"><rect fill="#F1F1F1" height="80.5938" rx="2.5" ry="2.5" style="stroke:#181818;stroke-width:0.5;" width="154.5" x="327.08" y="143.3"/><ellipse cx="342.08" cy="159.3" fill="#ADD1B2" rx="11" ry="11" style="stroke:#181818;stroke-width:1;"/><path d="M345.0488,164.9406 Q344.4706,165.2375 343.83,165.3781 Q343.1894,165.5344 342.4863,165.5344 Q339.9863,165.5344 338.6581,163.8937 Q337.3456,162.2375 337.3456,159.1125 Q337.3456,155.9875 338.6581,154.3312 Q339.9863,152.675 342.4863,152.675 Q343.1894,152.675 343.83,152.8312 Q344.4863,152.9875 345.0488,153.2844 L345.0488,156.0031 Q344.4238,155.425 343.83,155.1594 Q343.2363,154.8781 342.6113,154.8781 Q341.2675,154.8781 340.58,155.9562 Q339.8925,157.0187 339.8925,159.1125 Q339.8925,161.2062 340.58,162.2844 Q341.2675,163.3469 342.6113,163.3469 Q343.2363,163.3469 343.83,163.0812 Q344.4238,162.8 345.0488,162.2219 L345.0488,164.9406 Z " fill="#000000"/><text fill="#000000" font-family="sans-serif" font-size="14" lengthAdjust="spacing" textLength="122.5" x="356.08" y="164.1467">RecordingNotifier</text><line style="stroke:#181818;stroke-width:0.5;" x1="328.08" x2="480.58" y1="175.3" y2="175.3"/><g data-visibility-modifier="PUBLIC_FIELD"><ellipse cx="338.08" cy="188.9484" fill="none" rx="3" ry="3" style="stroke:#038048;stroke-width:1;"/></g><text fill="#000000" font-family="sans-serif" font-size="14" lengthAdjust="spacing" textLength="90.5488" x="347.08" y="192.2951">sent: string[]</text><line style="stroke:#181818;stroke-width:0.5;" x1="328.08" x2="480.58" y1="199.5969" y2="199.5969"/><g data-visibility-modifier="PUBLIC_METHOD"><ellipse cx="338.08" cy="213.2453" fill="#84BE84" rx="3" ry="3" style="stroke:#038048;stroke-width:1;"/></g><text fill="#000000" font-family="sans-serif" font-size="14" lengthAdjust="spacing" textLength="74.4092" x="347.08" y="216.592">send(msg)</text></g><!--class Notifier--><g class="entity" data-qualified-name="Notifier" data-source-line="5" id="ent0001"><rect fill="#F1F1F1" height="56.2969" rx="2.5" ry="2.5" style="stroke:#181818;stroke-width:0.5;" width="221.6582" x="121.5" y="7"/><ellipse cx="202.2769" cy="23" fill="#B4A7E5" rx="11" ry="11" style="stroke:#181818;stroke-width:1;"/><path d="M198.1987,18.7656 L198.1987,16.6094 L205.5894,16.6094 L205.5894,18.7656 L203.1206,18.7656 L203.1206,26.8438 L205.5894,26.8438 L205.5894,29 L198.1987,29 L198.1987,26.8438 L200.6675,26.8438 L200.6675,18.7656 L198.1987,18.7656 Z " fill="#000000"/><text fill="#000000" font-family="sans-serif" font-size="14" font-style="italic" lengthAdjust="spacing" textLength="51.6045" x="222.7769" y="27.8467">Notifier</text><line style="stroke:#181818;stroke-width:0.5;" x1="122.5" x2="342.1582" y1="39" y2="39"/><g data-visibility-modifier="PUBLIC_METHOD"><ellipse cx="132.5" cy="52.6484" fill="#84BE84" rx="3" ry="3" style="stroke:#038048;stroke-width:1;"/></g><text fill="#000000" font-family="sans-serif" font-size="14" lengthAdjust="spacing" textLength="195.6582" x="141.5" y="55.9951">send(message: string): void</text></g><polygon fill="none" points="232.3296,63.2969,239.33,83.2967,225.33,83.297" style="stroke:#181818;stroke-width:1;stroke-linejoin:miter;stroke-miterlimit:10;"/><line style="stroke:#181818;stroke-width:1;" x1="232.33" x2="232.33" y1="83.2969" y2="85.15"/><!--class EmailNotifier--><g class="entity" data-qualified-name="EmailNotifier" data-source-line="7" id="ent0002"><rect fill="#F1F1F1" height="80.5938" rx="2.5" ry="2.5" style="stroke:#181818;stroke-width:0.5;" width="130.665" x="7" y="143.3"/><ellipse cx="25.6984" cy="159.3" fill="#ADD1B2" rx="11" ry="11" style="stroke:#181818;stroke-width:1;"/><path d="M28.6672,164.9406 Q28.0891,165.2375 27.4484,165.3781 Q26.8078,165.5344 26.1047,165.5344 Q23.6047,165.5344 22.2766,163.8937 Q20.9641,162.2375 20.9641,159.1125 Q20.9641,155.9875 22.2766,154.3312 Q23.6047,152.675 26.1047,152.675 Q26.8078,152.675 27.4484,152.8312 Q28.1047,152.9875 28.6672,153.2844 L28.6672,156.0031 Q28.0422,155.425 27.4484,155.1594 Q26.8547,154.8781 26.2297,154.8781 Q24.8859,154.8781 24.1984,155.9562 Q23.5109,157.0187 23.5109,159.1125 Q23.5109,161.2062 24.1984,162.2844 Q24.8859,163.3469 26.2297,163.3469 Q26.8547,163.3469 27.4484,163.0812 Q28.0422,162.8 28.6672,162.2219 L28.6672,164.9406 Z " fill="#000000"/><text fill="#000000" font-family="sans-serif" font-size="14" lengthAdjust="spacing" textLength="90.4463" x="40.5203" y="164.1467">EmailNotifier</text><line style="stroke:#181818;stroke-width:0.5;" x1="8" x2="136.665" y1="175.3" y2="175.3"/><g data-visibility-modifier="PRIVATE_FIELD"><rect fill="none" height="6" style="stroke:#C82930;stroke-width:1;" width="6" x="15" y="185.9484"/></g><text fill="#000000" font-family="sans-serif" font-size="14" lengthAdjust="spacing" textLength="104.665" x="27" y="192.2951">address: string</text><line style="stroke:#181818;stroke-width:0.5;" x1="8" x2="136.665" y1="199.5969" y2="199.5969"/><g data-visibility-modifier="PUBLIC_METHOD"><ellipse cx="18" cy="213.2453" fill="#84BE84" rx="3" ry="3" style="stroke:#038048;stroke-width:1;"/></g><text fill="#000000" font-family="sans-serif" font-size="14" lengthAdjust="spacing" textLength="74.4092" x="27" y="216.592">send(msg)</text></g><!--class SmsNotifier--><g class="entity" data-qualified-name="SmsNotifier" data-source-line="8" id="ent0004"><rect fill="#F1F1F1" height="80.5938" rx="2.5" ry="2.5" style="stroke:#181818;stroke-width:0.5;" width="119.167" x="172.75" y="143.3"/><ellipse cx="190.3349" cy="159.3" fill="#ADD1B2" rx="11" ry="11" style="stroke:#181818;stroke-width:1;"/><path d="M193.3036,164.9406 Q192.7255,165.2375 192.0849,165.3781 Q191.4442,165.5344 190.7411,165.5344 Q188.2411,165.5344 186.913,163.8937 Q185.6005,162.2375 185.6005,159.1125 Q185.6005,155.9875 186.913,154.3312 Q188.2411,152.675 190.7411,152.675 Q191.4442,152.675 192.0849,152.8312 Q192.7411,152.9875 193.3036,153.2844 L193.3036,156.0031 Q192.6786,155.425 192.0849,155.1594 Q191.4911,154.8781 190.8661,154.8781 Q189.5224,154.8781 188.8349,155.9562 Q188.1474,157.0187 188.1474,159.1125 Q188.1474,161.2062 188.8349,162.2844 Q189.5224,163.3469 190.8661,163.3469 Q191.4911,163.3469 192.0849,163.0812 Q192.6786,162.8 193.3036,162.2219 L193.3036,164.9406 Z " fill="#000000"/><text fill="#000000" font-family="sans-serif" font-size="14" lengthAdjust="spacing" textLength="81.4229" x="204.9093" y="164.1467">SmsNotifier</text><line style="stroke:#181818;stroke-width:0.5;" x1="173.75" x2="290.917" y1="175.3" y2="175.3"/><g data-visibility-modifier="PRIVATE_FIELD"><rect fill="none" height="6" style="stroke:#C82930;stroke-width:1;" width="6" x="180.75" y="185.9484"/></g><text fill="#000000" font-family="sans-serif" font-size="14" lengthAdjust="spacing" textLength="93.167" x="192.75" y="192.2951">phone: string</text><line style="stroke:#181818;stroke-width:0.5;" x1="173.75" x2="290.917" y1="199.5969" y2="199.5969"/><g data-visibility-modifier="PUBLIC_METHOD"><ellipse cx="183.75" cy="213.2453" fill="#84BE84" rx="3" ry="3" style="stroke:#038048;stroke-width:1;"/></g><text fill="#000000" font-family="sans-serif" font-size="14" lengthAdjust="spacing" textLength="74.4092" x="192.75" y="216.592">send(msg)</text></g><!--reverse link Notifier to EmailNotifier--><g class="link" data-entity-1="ent0001" data-entity-2="ent0002" data-link-type="association" data-source-line="7" id="lnk3"><path codeLine="7" d="M232.33,85.15 C232.33,85.15 186.14,83.95 155.33,100.3 C135.61,110.76 117.52,127.42 103.29,143.03" fill="none" id="Notifier-backto-EmailNotifier" style="stroke:#181818;stroke-width:1;"/></g><!--reverse link Notifier to SmsNotifier--><g class="link" data-entity-1="ent0001" data-entity-2="ent0004" data-link-type="association" data-source-line="8" id="lnk5"><path codeLine="8" d="M232.33,85.15 C232.33,85.15 232.33,115.98 232.33,142.96" fill="none" id="Notifier-backto-SmsNotifier" style="stroke:#181818;stroke-width:1;"/></g><!--reverse link Notifier to RecordingNotifier--><g class="link" data-entity-1="ent0001" data-entity-2="ent0007" data-link-type="association" data-source-line="17" id="lnk8"><path codeLine="17" d="M232.33,85.15 C232.33,85.15 277.99,85 309.33,100.3 C330.9,110.82 351.48,127.5 367.93,143.1" fill="none" id="Notifier-backto-RecordingNotifier" style="stroke:#181818;stroke-width:1;"/></g><?plantuml-src VO-z3i8m38HtFuL7AWG3OyNAmC808s88ZMajo8_iW8I0ToT8RKK1aIdnVNSNDsm9oSLqHKTkJwAWH_RHY75OIpZ7fMz8E1bV4Su0s2UIWycFLKXyO1A0xeRp-tIA2sVur8j3RUFqXwt4iPAt8qUgfgOIDGdxkYZn4jZ283334sEjPBJZle0sJUi2tWfVpjW4t-T_Y6ykYAOwvfzW8aru0yndkCYQgY0sX_Jhl9YlQHkRkihjxY_NrZ_W2G00?></g></svg>