<svg xmlns="http://www.w3.org/2000/svg" xmlns:xlink="http://www.w3.org/1999/xlink" contentStyleType="text/css" data-diagram-type="CLASS" height="427px" preserveAspectRatio="none" style="width:355px;height:427px;background:#FFFFFF;" version="1.1" viewBox="0 0 355 427" width="355px" zoomAndPan="magnify"><?plantuml 1.2026.6?><defs/><g><!--class PlayLog--><g class="entity" data-qualified-name="PlayLog" data-source-line="5" id="ent0001"><rect fill="#F1F1F1" height="56.2969" rx="2.5" ry="2.5" style="stroke:#181818;stroke-width:0.5;" width="266.5361" x="40.68" y="99"/><ellipse cx="142.4739" cy="115" fill="#B4A7E5" rx="11" ry="11" style="stroke:#181818;stroke-width:1;"/><path d="M138.3958,110.7656 L138.3958,108.6094 L145.7864,108.6094 L145.7864,110.7656 L143.3177,110.7656 L143.3177,118.8438 L145.7864,118.8438 L145.7864,121 L138.3958,121 L138.3958,118.8438 L140.8646,118.8438 L140.8646,110.7656 L138.3958,110.7656 Z " fill="#000000"/><text fill="#000000" font-family="sans-serif" font-size="14" font-style="italic" lengthAdjust="spacing" textLength="54.4482" x="162.9739" y="119.8467">PlayLog</text><line style="stroke:#181818;stroke-width:0.5;" x1="41.68" x2="306.2161" y1="131" y2="131"/><g data-visibility-modifier="PUBLIC_METHOD"><ellipse cx="51.68" cy="144.6484" fill="#84BE84" rx="3" ry="3" style="stroke:#038048;stroke-width:1;"/></g><text fill="#000000" font-family="sans-serif" font-size="14" lengthAdjust="spacing" textLength="240.5361" x="60.68" y="147.9951">songsSince(time: number): Song[]</text></g><!--class WeeklyRecap--><g class="entity" data-qualified-name="WeeklyRecap" data-source-line="6" id="ent0002"><rect fill="#F1F1F1" height="32" rx="2.5" ry="2.5" style="stroke:#181818;stroke-width:0.5;" width="126.8555" x="110.52" y="7"/><ellipse cx="125.52" cy="23" fill="#ADD1B2" rx="11" ry="11" style="stroke:#181818;stroke-width:1;"/><path d="M128.4887,28.6406 Q127.9106,28.9375 127.27,29.0781 Q126.6294,29.2344 125.9263,29.2344 Q123.4263,29.2344 122.0981,27.5938 Q120.7856,25.9375 120.7856,22.8125 Q120.7856,19.6875 122.0981,18.0313 Q123.4263,16.375 125.9263,16.375 Q126.6294,16.375 127.27,16.5313 Q127.9263,16.6875 128.4887,16.9844 L128.4887,19.7031 Q127.8638,19.125 127.27,18.8594 Q126.6763,18.5781 126.0513,18.5781 Q124.7075,18.5781 124.02,19.6563 Q123.3325,20.7188 123.3325,22.8125 Q123.3325,24.9063 124.02,25.9844 Q124.7075,27.0469 126.0513,27.0469 Q126.6763,27.0469 127.27,26.7813 Q127.8638,26.5 128.4887,25.9219 L128.4887,28.6406 Z " fill="#000000"/><text fill="#000000" font-family="sans-serif" font-size="14" lengthAdjust="spacing" textLength="94.8555" x="139.52" y="27.8467">WeeklyRecap</text></g><!--class PlayHistory--><g class="entity" data-qualified-name="PlayHistory" data-source-line="7" id="ent0003"><rect fill="#F1F1F1" height="96.8906" rx="2.5" ry="2.5" style="stroke:#181818;stroke-width:0.5;" width="333.9043" x="7" y="215.29"/><ellipse cx="130.2007" cy="231.29" fill="#ADD1B2" rx="11" ry="11" style="stroke:#181818;stroke-width:1;"/><path d="M133.1694,236.9306 Q132.5913,237.2275 131.9507,237.3681 Q131.3101,237.5244 130.6069,237.5244 Q128.1069,237.5244 126.7788,235.8838 Q125.4663,234.2275 125.4663,231.1025 Q125.4663,227.9775 126.7788,226.3213 Q128.1069,224.665 130.6069,224.665 Q131.3101,224.665 131.9507,224.8213 Q132.6069,224.9775 133.1694,225.2744 L133.1694,227.9931 Q132.5444,227.415 131.9507,227.1494 Q131.3569,226.8681 130.7319,226.8681 Q129.3882,226.8681 128.7007,227.9463 Q128.0132,229.0088 128.0132,231.1025 Q128.0132,233.1963 128.7007,234.2744 Q129.3882,235.3369 130.7319,235.3369 Q131.3569,235.3369 131.9507,235.0713 Q132.5444,234.79 133.1694,234.2119 L133.1694,236.9306 Z " fill="#000000"/><text fill="#000000" font-family="sans-serif" font-size="14" lengthAdjust="spacing" textLength="79.0029" x="150.7007" y="236.1367">PlayHistory</text><line style="stroke:#181818;stroke-width:0.5;" x1="8" x2="339.9043" y1="247.29" y2="247.29"/><g data-visibility-modifier="PRIVATE_FIELD"><rect fill="none" height="6" style="stroke:#C82930;stroke-width:1;" width="6" x="15" y="257.9384"/></g><text fill="#000000" font-family="sans-serif" font-size="14" lengthAdjust="spacing" textLength="143.5752" x="27" y="264.2851">recent: PlayRecord[]</text><line style="stroke:#181818;stroke-width:0.5;" x1="8" x2="339.9043" y1="271.5869" y2="271.5869"/><g data-visibility-modifier="PUBLIC_METHOD"><ellipse cx="18" cy="285.2353" fill="#84BE84" rx="3" ry="3" style="stroke:#038048;stroke-width:1;"/></g><text fill="#000000" font-family="sans-serif" font-size="14" lengthAdjust="spacing" textLength="307.9043" x="27" y="288.582">record(song: Song, playedAt: number): void</text><g data-visibility-modifier="PUBLIC_METHOD"><ellipse cx="18" cy="301.5322" fill="#84BE84" rx="3" ry="3" style="stroke:#038048;stroke-width:1;"/></g><text fill="#000000" font-family="sans-serif" font-size="14" lengthAdjust="spacing" textLength="98.6973" x="27" y="304.8789">songsSince(..)</text></g><g class="entity" data-qualified-name="GMN6" data-source-line="18" id="ent0007"><path d="M62.45,372.18 L62.45,412.4456 A0,0 0 0 0 62.45,412.4456 L285.4642,412.4456 A0,0 0 0 0 285.4642,412.4456 L285.4642,382.18 L275.4642,372.18 L177.95,372.18 L173.95,312.59 L169.95,372.18 L62.45,372.18 A0,0 0 0 0 62.45,372.18" fill="#FEFFDD" style="stroke:#181818;stroke-width:0.5;"/><path d="M275.4642,372.18 L275.4642,382.18 L285.4642,382.18 L275.4642,372.18" fill="#FEFFDD" style="stroke:#181818;stroke-width:0.5;"/><text fill="#000000" font-family="sans-serif" font-size="13" lengthAdjust="spacing" textLength="175.373" x="68.45" y="389.2469">representation can change</text><text fill="#000000" font-family="sans-serif" font-size="13" lengthAdjust="spacing" textLength="202.0142" x="68.45" y="404.3797">without reaching WeeklyRecap</text></g><!--link WeeklyRecap to PlayLog--><g class="link" data-entity-1="ent0002" data-entity-2="ent0001" data-link-type="dependency" data-source-line="9" id="lnk4"><path codeLine="9" d="M173.95,39.07 C173.95,54.72 173.95,74.55 173.95,93.69" fill="none" id="WeeklyRecap-to-PlayLog" style="stroke:#181818;stroke-width:1;stroke-dasharray:7,7;"/><polygon fill="#181818" points="173.95,98.69,177.95,89.69,173.95,93.69,169.95,89.69,173.95,98.69" style="stroke:#181818;stroke-width:1;stroke-linejoin:miter;stroke-miterlimit:10;"/></g><!--reverse link PlayLog to PlayHistory--><g class="link" data-entity-1="ent0001" data-entity-2="ent0003" data-link-type="extension" data-source-line="10" id="lnk5"><path codeLine="10" d="M173.95,173.71 C173.95,190.78 173.95,195.17 173.95,215.06" fill="none" id="PlayLog-backto-PlayHistory" style="stroke:#181818;stroke-width:1;stroke-dasharray:7,7;"/><polygon fill="none" points="173.95,155.71,167.95,173.71,179.95,173.71,173.95,155.71" style="stroke:#181818;stroke-width:1;stroke-linejoin:miter;stroke-miterlimit:10;"/></g><?plantuml-src PP0nJyCm48Lt_ueRMnKyC4O8YGsa3eWE38Z1TQx9gV6TTRw08l7ZSKf1AGoMvNllVNvsJoq2fcmJ94nxrEBAaJW73GawbJ4_SezA5ZWYt3X7RAY7K0zFGvYsqhauX5BW1V4uJCyOGpvFPls1YebEpYrayFxkDtpUuVRJ-yl4ZzB0fWXtPKUrmSeeOGCypbNN3Uogylhc5i7glrQCoDQSUFLAqVQVPwEd-Mf6VsEk85S7jlUsuByBjN-JYpRUhvrZCOIzc4a2ELmy0a0nAvRQ9XW9GmnrzO4xhDe7MI-ZLK-8FN5tyOV8BSnazmK0?></g></svg>