<svg xmlns="http://www.w3.org/2000/svg" xmlns:xlink="http://www.w3.org/1999/xlink" contentStyleType="text/css" data-diagram-type="CLASS" height="341px" preserveAspectRatio="none" style="width:251px;height:341px;background:#FFFFFF;" version="1.1" viewBox="0 0 251 341" width="251px" zoomAndPan="magnify"><?plantuml 1.2026.6?><defs/><g><!--class Playlist--><g class="entity" data-qualified-name="Playlist" data-source-line="5" id="ent0001"><rect fill="#F1F1F1" height="145.7813" rx="2.5" ry="2.5" style="stroke:#181818;stroke-width:0.5;" width="229.0957" x="7" y="7"/><ellipse cx="92.4185" cy="23" fill="#ADD1B2" rx="11" ry="11" style="stroke:#181818;stroke-width:1;"/><path d="M95.3872,28.6406 Q94.8091,28.9375 94.1685,29.0781 Q93.5278,29.2344 92.8247,29.2344 Q90.3247,29.2344 88.9966,27.5938 Q87.6841,25.9375 87.6841,22.8125 Q87.6841,19.6875 88.9966,18.0313 Q90.3247,16.375 92.8247,16.375 Q93.5278,16.375 94.1685,16.5313 Q94.8247,16.6875 95.3872,16.9844 L95.3872,19.7031 Q94.7622,19.125 94.1685,18.8594 Q93.5747,18.5781 92.9497,18.5781 Q91.606,18.5781 90.9185,19.6563 Q90.231,20.7188 90.231,22.8125 Q90.231,24.9063 90.9185,25.9844 Q91.606,27.0469 92.9497,27.0469 Q93.5747,27.0469 94.1685,26.7813 Q94.7622,26.5 95.3872,25.9219 L95.3872,28.6406 Z " fill="#000000"/><text fill="#000000" font-family="sans-serif" font-size="14" lengthAdjust="spacing" textLength="49.7588" x="112.9185" y="27.8467">Playlist</text><line style="stroke:#181818;stroke-width:0.5;" x1="8" x2="235.0957" y1="39" y2="39"/><text fill="#000000" font-family="sans-serif" font-size="14" lengthAdjust="spacing" textLength="100.666" x="13" y="55.9951">songs : Song[]</text><text fill="#000000" font-family="sans-serif" font-size="14" lengthAdjust="spacing" textLength="158.1016" x="13" y="72.292">currentIndex : number</text><line style="stroke:#181818;stroke-width:0.5;" x1="8" x2="235.0957" y1="79.5938" y2="79.5938"/><text fill="#000000" font-family="sans-serif" font-size="14" lengthAdjust="spacing" textLength="119.7246" x="13" y="96.5889">add(song : Song)</text><text fill="#000000" font-family="sans-serif" font-size="14" lengthAdjust="spacing" textLength="42.1846" x="13" y="112.8857">next()</text><text fill="#000000" font-family="sans-serif" font-size="14" lengthAdjust="spacing" textLength="89.3936" x="13" y="129.1826">play() : Song</text><text fill="#000000" font-family="sans-serif" font-size="14" lengthAdjust="spacing" textLength="217.0957" x="13" y="145.4795">recentlyPlayedSongs() : Song[]</text></g><!--class PlayHistory--><g class="entity" data-qualified-name="PlayHistory" data-source-line="14" id="ent0002"><rect fill="#F1F1F1" height="96.8906" rx="2.5" ry="2.5" style="stroke:#181818;stroke-width:0.5;" width="150.6465" x="46.22" y="229.78"/><ellipse cx="79.0596" cy="245.78" fill="#ADD1B2" rx="11" ry="11" style="stroke:#181818;stroke-width:1;"/><path d="M82.0283,251.4206 Q81.4502,251.7175 80.8096,251.8581 Q80.169,252.0144 79.4658,252.0144 Q76.9658,252.0144 75.6377,250.3738 Q74.3252,248.7175 74.3252,245.5925 Q74.3252,242.4675 75.6377,240.8113 Q76.9658,239.155 79.4658,239.155 Q80.169,239.155 80.8096,239.3113 Q81.4658,239.4675 82.0283,239.7644 L82.0283,242.4831 Q81.4033,241.905 80.8096,241.6394 Q80.2158,241.3581 79.5908,241.3581 Q78.2471,241.3581 77.5596,242.4363 Q76.8721,243.4988 76.8721,245.5925 Q76.8721,247.6863 77.5596,248.7644 Q78.2471,249.8269 79.5908,249.8269 Q80.2158,249.8269 80.8096,249.5613 Q81.4033,249.28 82.0283,248.7019 L82.0283,251.4206 Z " fill="#000000"/><text fill="#000000" font-family="sans-serif" font-size="14" lengthAdjust="spacing" textLength="79.0029" x="97.024" y="250.6267">PlayHistory</text><line style="stroke:#181818;stroke-width:0.5;" x1="47.22" x2="195.8665" y1="261.78" y2="261.78"/><text fill="#000000" font-family="sans-serif" font-size="14" lengthAdjust="spacing" textLength="104.7949" x="52.22" y="278.7751">recent : Song[]</text><line style="stroke:#181818;stroke-width:0.5;" x1="47.22" x2="195.8665" y1="286.0769" y2="286.0769"/><text fill="#000000" font-family="sans-serif" font-size="14" lengthAdjust="spacing" textLength="138.6465" x="52.22" y="303.072">record(song : Song)</text><text fill="#000000" font-family="sans-serif" font-size="14" lengthAdjust="spacing" textLength="105.5469" x="52.22" y="319.3689">songs(): song[]</text></g><!--link Playlist to PlayHistory--><g class="link" data-entity-1="ent0001" data-entity-2="ent0002" data-link-type="composition" data-source-line="20" id="lnk3"><path codeLine="20" d="M121.55,165.16 C121.55,190.64 121.55,201.62 121.55,224.55" fill="none" id="Playlist-PlayHistory" style="stroke:#181818;stroke-width:1;"/><polygon fill="#181818" points="121.55,153.16,117.55,159.16,121.55,165.16,125.55,159.16,121.55,153.16" style="stroke:#181818;stroke-width:1;stroke-linejoin:miter;stroke-miterlimit:10;"/><polygon fill="#181818" points="121.55,229.55,125.55,220.55,121.55,224.55,117.55,220.55,121.55,229.55" style="stroke:#181818;stroke-width:1;stroke-linejoin:miter;stroke-miterlimit:10;"/><text fill="#000000" font-family="sans-serif" font-size="13" lengthAdjust="spacing" textLength="112.7915" x="122.55" y="195.8469">delegates history</text></g><?plantuml-src PO-n3e8m48RtFiMDOEBYoE0icucZSQZj1HfBQUvA0Z6-krSW1EFKwtVNx_wspY9W5zC47NPF95RySY5gqXqqr0-n3YsIIpeOX9DIncjck7ezUSS9tWg0-z0mL72Jy_uGO0OY3AaE5aVXOSXYuThQ8W-liwMWW6CgSX75M9HhH-w4HXH-oflGPiXRMvPyzaakagIdQGwplDkd4TBJts9UZDLSBCBjKuVZyVmZhi2YnqOdP6WNfhu0?></g></svg>